<svg width="47" height="47" viewBox="0 0 47 47" fill="none" xmlns="http://www.w3.org/2000/svg">
<path opacity="0.4" d="M23.5 43.0833C34.3155 43.0833 43.0834 34.3154 43.0834 23.5C43.0834 12.6844 34.3155 3.91663 23.5 3.91663C12.6844 3.91663 3.91669 12.6844 3.91669 23.5C3.91669 34.3154 12.6844 43.0833 23.5 43.0833Z" fill="#292D32"/>
<path d="M31.3334 22.0312H24.9688V15.6666C24.9688 14.8637 24.3029 14.1979 23.5 14.1979C22.6971 14.1979 22.0313 14.8637 22.0313 15.6666V22.0312H15.6667C14.8638 22.0312 14.1979 22.697 14.1979 23.5C14.1979 24.3029 14.8638 24.9687 15.6667 24.9687H22.0313V31.3333C22.0313 32.1362 22.6971 32.802 23.5 32.802C24.3029 32.802 24.9688 32.1362 24.9688 31.3333V24.9687H31.3334C32.1363 24.9687 32.8021 24.3029 32.8021 23.5C32.8021 22.697 32.1363 22.0312 31.3334 22.0312Z" fill="#292D32"/>
</svg>
