<svg width="14" height="14" viewBox="0 0 14 14" fill="none" xmlns="http://www.w3.org/2000/svg">
<g clip-path="url(#clip0_8_150)">
<path fill-rule="evenodd" clip-rule="evenodd" d="M6.31874 0.728022C6.75379 0.535117 7.24624 0.535117 7.68129 0.728022L12.7164 2.96066C13.8688 3.47167 13.516 5.25001 12.2622 5.25001H1.7378C0.483984 5.25001 0.131197 3.47166 1.28362 2.96066L6.31874 0.728022ZM7.2271 1.82447C7.08209 1.76017 6.91794 1.76017 6.77292 1.82447L1.98962 3.9454C1.932 3.97095 1.95023 4.05706 2.01326 4.05706H11.9868C12.0498 4.05706 12.068 3.97095 12.0104 3.9454L7.2271 1.82447Z" fill="#7B046B"/>
<path d="M1.16666 12.8333C1.16666 12.5112 1.42783 12.25 1.74999 12.25H12.25C12.5722 12.25 12.8333 12.5112 12.8333 12.8333C12.8333 13.1555 12.5722 13.4167 12.25 13.4167H1.74999C1.42783 13.4167 1.16666 13.1555 1.16666 12.8333Z" fill="#7B046B"/>
<path d="M6.41666 11.0833C6.41666 11.4055 6.67781 11.6667 6.99999 11.6667C7.32216 11.6667 7.58332 11.4055 7.58332 11.0833V6.41666C7.58332 6.09449 7.32216 5.83333 6.99999 5.83333C6.67781 5.83333 6.41666 6.09449 6.41666 6.41666V11.0833Z" fill="#7B046B"/>
<path d="M3.49999 11.6667C3.17783 11.6667 2.91666 11.4055 2.91666 11.0833V6.41666C2.91666 6.09449 3.17782 5.83333 3.49999 5.83333C3.82215 5.83333 4.08332 6.09449 4.08332 6.41666V11.0833C4.08332 11.4055 3.82216 11.6667 3.49999 11.6667Z" fill="#7B046B"/>
<path d="M9.91666 11.0833C9.91666 11.4055 10.1778 11.6667 10.5 11.6667C10.8222 11.6667 11.0833 11.4055 11.0833 11.0833V6.41666C11.0833 6.09449 10.8222 5.83333 10.5 5.83333C10.1778 5.83333 9.91666 6.09449 9.91666 6.41666V11.0833Z" fill="#7B046B"/>
</g>
<defs>
<clipPath id="clip0_8_150">
<rect width="14" height="14" fill="white"/>
</clipPath>
</defs>
</svg>
