<svg width="26" height="26" viewBox="0 0 26 26" fill="none" xmlns="http://www.w3.org/2000/svg">
<g clip-path="url(#clip0_53_248)">
<path d="M15.1243 0.787201C17.6513 0.787201 19.6999 2.83576 19.6999 5.36279H24.2755C24.6966 5.36279 25.0381 5.70421 25.0381 6.12538C25.0381 6.54655 24.6966 6.88798 24.2755 6.88798L21.9877 6.88722V20.6147C21.9877 23.1418 19.9391 25.1903 17.4121 25.1903H8.26092C5.7339 25.1903 3.68534 23.1418 3.68534 20.6147V6.88798H1.39755C0.976375 6.88798 0.634949 6.54655 0.634949 6.12538C0.634949 5.70421 0.976375 5.36279 1.39755 5.36279H5.97313C5.97313 2.83576 8.02169 0.787201 10.5487 0.787201H15.1243ZM20.4625 6.88798H5.21053V20.6147C5.21053 22.2484 6.49472 23.5821 8.10868 23.6614L8.26092 23.6651H17.4121C19.0457 23.6651 20.3794 22.3809 20.4587 20.767L20.4625 20.6147V6.88798ZM10.5487 11.4636C10.9699 11.4636 11.3113 11.805 11.3113 12.2262V17.5643C11.3113 17.9855 10.9699 18.3269 10.5487 18.3269C10.1275 18.3269 9.78612 17.9855 9.78612 17.5643V12.2262C9.78612 11.805 10.1275 11.4636 10.5487 11.4636ZM15.1243 11.4636C15.5455 11.4636 15.8869 11.805 15.8869 12.2262V17.5643C15.8869 17.9855 15.5455 18.3269 15.1243 18.3269C14.7031 18.3269 14.3617 17.9855 14.3617 17.5643V12.2262C14.3617 11.805 14.7031 11.4636 15.1243 11.4636ZM15.1243 2.3124H10.5487C8.91508 2.3124 7.58139 3.59659 7.50206 5.21054L7.49833 5.36279H12.8365H18.1747C18.1747 3.72915 16.8905 2.39546 15.2765 2.31613L15.1243 2.3124Z" fill="#FF0000"/>
</g>
<defs>
<clipPath id="clip0_53_248">
<rect width="24.4031" height="24.4031" fill="white" transform="translate(0.634949 0.787201)"/>
</clipPath>
</defs>
</svg>
