<svg width="28" height="27" viewBox="0 0 28 27" fill="none" xmlns="http://www.w3.org/2000/svg">
<g clip-path="url(#clip0_53_252)">
<path d="M14.6476 1.67279C15.1095 1.67279 15.4839 2.04726 15.4839 2.50919C15.4839 2.93812 15.1611 3.29164 14.7451 3.33996L14.6476 3.34558H6.27867C4.94237 3.34558 3.85005 4.39018 3.77373 5.70734L3.76947 5.85478V20.9099C3.76947 22.2462 4.81407 23.3385 6.13123 23.4149L6.27867 23.4191H21.3338C22.6701 23.4191 23.7624 22.3745 23.8387 21.0574L23.843 20.9099V12.5491C23.843 12.0871 24.2175 11.7127 24.6794 11.7127C25.1083 11.7127 25.4619 12.0356 25.5102 12.4515L25.5158 12.5491V20.9099C25.5158 23.1588 23.7407 24.9931 21.5152 25.088L21.3338 25.0919H6.27867C4.0298 25.0919 2.19553 23.3168 2.10054 21.0913L2.09668 20.9099V5.85478C2.09668 3.60591 3.87177 1.77164 6.09726 1.67665L6.27867 1.67279H14.6476ZM24.4179 3.34483C25.3978 4.32473 25.3978 5.91347 24.4179 6.89337L16.319 14.9922C15.8804 15.4308 15.3498 15.7663 14.7655 15.9745L11.7534 17.0477C11.3183 17.2028 10.8398 16.9757 10.6848 16.5406C10.6183 16.3539 10.6202 16.1496 10.6903 15.9642L11.9177 12.7158C12.0855 12.2716 12.3459 11.8683 12.6816 11.5326L20.8694 3.34483C21.8493 2.36493 23.438 2.36493 24.4179 3.34483ZM22.1251 4.46268L22.0522 4.52768L13.8645 12.7154C13.7302 12.8497 13.62 13.0056 13.5383 13.1763L13.4825 13.307L12.8939 14.866L14.2041 14.3988C14.4962 14.2947 14.766 14.1375 15.0001 13.9357L15.1362 13.8094L23.235 5.71052C23.5617 5.38389 23.5617 4.85431 23.235 4.52768C22.9317 4.22438 22.4534 4.20271 22.1251 4.46268Z" fill="black"/>
</g>
<defs>
<clipPath id="clip0_53_252">
<rect width="26.7647" height="26.7647" fill="white" transform="translate(0.423889)"/>
</clipPath>
</defs>
</svg>
