<svg width="188" height="169" viewBox="0 0 188 169" fill="none" xmlns="http://www.w3.org/2000/svg">
<path d="M80.2521 6.17875L50.4149 33.433C49.6996 34.0877 49.1319 34.8666 48.7445 35.7248C48.3571 36.583 48.1577 37.5034 48.1577 38.4331C48.1577 39.3628 48.3571 40.2833 48.7445 41.1415C49.1319 41.9997 49.6996 42.7786 50.4149 43.4333C51.8446 44.7449 53.7787 45.4812 55.7947 45.4812C57.8107 45.4812 59.7448 44.7449 61.1746 43.4333L88.5698 18.3622V161.958C88.5698 163.825 89.3738 165.617 90.8049 166.937C92.236 168.258 94.177 169 96.2008 169C98.2247 169 100.166 168.258 101.597 166.937C103.028 165.617 103.832 163.825 103.832 161.958V17.9396L131.38 43.4333C132.089 44.0933 132.933 44.6173 133.863 44.9748C134.793 45.3323 135.79 45.5164 136.798 45.5164C137.805 45.5164 138.802 45.3323 139.732 44.9748C140.662 44.6173 141.506 44.0933 142.216 43.4333C142.931 42.7786 143.499 41.9997 143.886 41.1415C144.273 40.2833 144.473 39.3628 144.473 38.4331C144.473 37.5034 144.273 36.583 143.886 35.7248C143.499 34.8666 142.931 34.0877 142.216 33.433L112.607 6.17875C108.315 2.22229 102.496 -2.40545e-06 96.4298 -2.40545e-06C90.3631 -2.40545e-06 84.5445 2.22229 80.2521 6.17875Z" fill="#009B05"/>
</svg>
