<svg width="33" height="33" viewBox="0 0 33 33" fill="none" xmlns="http://www.w3.org/2000/svg">
<path fill-rule="evenodd" clip-rule="evenodd" d="M30.25 16.5C30.25 24.0938 24.0938 30.25 16.5 30.25C8.90608 30.25 2.75 24.0938 2.75 16.5C2.75 8.90608 8.90608 2.75 16.5 2.75C24.0938 2.75 30.25 8.90608 30.25 16.5ZM16.5 24.4062C17.0695 24.4062 17.5312 23.9445 17.5312 23.375V15.125C17.5312 14.5555 17.0695 14.0937 16.5 14.0937C15.9305 14.0937 15.4687 14.5555 15.4687 15.125V23.375C15.4687 23.9445 15.9305 24.4062 16.5 24.4062ZM16.5 9.625C17.2594 9.625 17.875 10.2406 17.875 11C17.875 11.7594 17.2594 12.375 16.5 12.375C15.7406 12.375 15.125 11.7594 15.125 11C15.125 10.2406 15.7406 9.625 16.5 9.625Z" fill="#7B91FF"/>
</svg>
