<svg width="26" height="27" viewBox="0 0 26 27" fill="none" xmlns="http://www.w3.org/2000/svg">
<path d="M11.0945 11.6436C11.0945 12.2281 11.2569 12.3147 11.6249 12.4446L12.1769 12.6395V10.7994H11.8522C11.4409 10.7994 11.0945 11.1782 11.0945 11.6436Z" fill="#00B521"/>
<path d="M13.8005 16.7534H14.1253C14.5474 16.7534 14.8829 16.3746 14.8829 15.9091C14.8829 15.3246 14.7206 15.238 14.3526 15.1082L13.8005 14.9133V16.7534Z" fill="#00B521"/>
<path d="M21.1933 6.71873L18.9744 8.93765C18.812 9.10001 18.6064 9.17577 18.4007 9.17577C18.1951 9.17577 17.9894 9.10001 17.8271 8.93765C17.5132 8.62375 17.5132 8.1042 17.8271 7.79031L20.046 5.57139C18.141 3.9478 15.6839 2.952 12.9888 2.952C7.01393 2.952 2.16479 7.80113 2.16479 13.776C2.16479 19.7508 7.01393 24.5999 12.9888 24.5999C18.9636 24.5999 23.8127 19.7508 23.8127 13.776C23.8127 11.0808 22.8169 8.62375 21.1933 6.71873ZM14.883 13.5811C15.5757 13.8301 16.5065 14.328 16.5065 15.9191C16.5065 17.2721 15.435 18.387 14.1253 18.387H13.8006V18.6576C13.8006 19.1013 13.4325 19.4694 12.9888 19.4694C12.545 19.4694 12.177 19.1013 12.177 18.6576V18.387H12.0904C10.6508 18.387 9.47097 17.1747 9.47097 15.681C9.47097 15.2264 9.83898 14.8584 10.2828 14.8584C10.7265 14.8584 11.0946 15.2264 11.0946 15.6702C11.0946 16.2655 11.5383 16.7525 12.0904 16.7525H12.177V14.3496L11.0946 13.9708C10.4018 13.7218 9.47097 13.2239 9.47097 11.6328C9.47097 10.2798 10.5425 9.16495 11.8522 9.16495H12.177V8.90518C12.177 8.46139 12.545 8.09338 12.9888 8.09338C13.4325 8.09338 13.8006 8.46139 13.8006 8.90518V9.17577H13.8871C15.3267 9.17577 16.5065 10.3881 16.5065 11.8818C16.5065 12.3255 16.1385 12.6936 15.6947 12.6936C15.251 12.6936 14.883 12.3255 14.883 11.8818C14.883 11.2864 14.4392 10.7994 13.8871 10.7994H13.8006V13.2023L14.883 13.5811Z" fill="#00B521"/>
<path d="M24.5596 2.6381C24.473 2.44327 24.3214 2.28091 24.1158 2.19432C24.0184 2.16185 23.9209 2.1402 23.8127 2.1402H19.4831C19.0393 2.1402 18.6713 2.50821 18.6713 2.952C18.6713 3.39578 19.0393 3.76379 19.4831 3.76379H21.8536L20.046 5.57139C20.4573 5.92859 20.8361 6.30742 21.1933 6.71873L23.0009 4.91113V7.28158C23.0009 7.72536 23.3689 8.09338 23.8127 8.09338C24.2565 8.09338 24.6245 7.72536 24.6245 7.28158V2.952C24.6245 2.84376 24.6029 2.74634 24.5596 2.6381Z" fill="#00B521"/>
</svg>
