<svg width="14" height="14" viewBox="0 0 14 14" fill="none" xmlns="http://www.w3.org/2000/svg">
<path d="M12.6625 2.16247C12.8903 1.93466 12.8903 1.56532 12.6625 1.33751C12.4347 1.10971 12.0653 1.10971 11.8375 1.33751L1.33752 11.8375C1.10972 12.0653 1.10972 12.4347 1.33752 12.6625C1.56533 12.8903 1.93468 12.8903 2.16249 12.6625L12.6625 2.16247Z" fill="#7B046B"/>
<path fill-rule="evenodd" clip-rule="evenodd" d="M6.41667 3.79166C6.41667 5.2414 5.24142 6.41666 3.79167 6.41666C2.34193 6.41666 1.16667 5.2414 1.16667 3.79166C1.16667 2.34191 2.34193 1.16666 3.79167 1.16666C5.24142 1.16666 6.41667 2.34191 6.41667 3.79166ZM2.33738 3.79166C2.33738 4.59484 2.98849 5.24595 3.79167 5.24595C4.59486 5.24595 5.24596 4.59484 5.24596 3.79166C5.24596 2.98847 4.59486 2.33737 3.79167 2.33737C2.98849 2.33737 2.33738 2.98847 2.33738 3.79166Z" fill="#7B046B"/>
<path fill-rule="evenodd" clip-rule="evenodd" d="M12.8333 10.2083C12.8333 11.6581 11.6581 12.8333 10.2083 12.8333C8.75857 12.8333 7.58333 11.6581 7.58333 10.2083C7.58333 8.75857 8.75857 7.58333 10.2083 7.58333C11.6581 7.58333 12.8333 8.75857 12.8333 10.2083ZM8.75402 10.2083C8.75402 11.0115 9.40514 11.6626 10.2083 11.6626C11.0115 11.6626 11.6626 11.0115 11.6626 10.2083C11.6626 9.40514 11.0115 8.75402 10.2083 8.75402C9.40514 8.75402 8.75402 9.40514 8.75402 10.2083Z" fill="#7B046B"/>
</svg>
