<svg width="16" height="16" viewBox="0 0 16 16" fill="none" xmlns="http://www.w3.org/2000/svg">
<g clip-path="url(#clip0_6_105)">
<path d="M9.50001 0.866024L13.4282 3.13397C14.3564 3.66987 14.9282 4.66025 14.9282 5.73205V10.2679C14.9282 11.3397 14.3564 12.3301 13.4282 12.866L9.50001 15.134C8.57181 15.6699 7.42821 15.6699 6.50001 15.134L2.57181 12.866C1.6436 12.3301 1.07181 11.3397 1.07181 10.2679V5.73205C1.07181 4.66025 1.6436 3.66987 2.57181 3.13397L6.50001 0.866024C7.42821 0.330125 8.57181 0.330125 9.50001 0.866024ZM7.10442 1.67581L7.00001 1.73205L3.07181 4C2.48557 4.33846 2.11259 4.94886 2.07495 5.61972L2.07181 5.73205V10.2679C2.07181 10.9449 2.41394 11.5731 2.9761 11.9411L3.07181 12L7.00001 14.2679C7.58444 14.6054 8.29694 14.6241 8.8956 14.3242L9.00001 14.2679L12.9282 12C13.5144 11.6615 13.8874 11.0511 13.9251 10.3803L13.9282 10.2679V5.73205C13.9282 5.05512 13.5861 4.42691 13.0239 4.05889L12.9282 4L9.00001 1.73205C8.41559 1.39463 7.70308 1.37589 7.10442 1.67581ZM11.5102 5.77869C11.6398 6.02251 11.5473 6.32526 11.3034 6.4549L8.49425 7.94832L8.49427 11.3328C8.49427 11.6089 8.27042 11.8328 7.99427 11.8328C7.71813 11.8328 7.49427 11.6089 7.49427 11.3328L7.49425 7.94832L4.68512 6.4549C4.4413 6.32526 4.34874 6.02251 4.47838 5.77869C4.60802 5.53487 4.91077 5.44231 5.15459 5.57195L7.99425 7.08132L10.834 5.57195C11.0778 5.44231 11.3805 5.53487 11.5102 5.77869Z" fill="#7B046B"/>
</g>
<defs>
<clipPath id="clip0_6_105">
<rect width="16" height="16" fill="white"/>
</clipPath>
</defs>
</svg>
