<svg width="512" height="512" viewBox="0 0 512 512" fill="none" xmlns="http://www.w3.org/2000/svg">
<path d="M496.427 192.64C484.267 178.56 466.56 170.667 448 170.667H446.08C435.413 74.88 353.92 0 255.36 0C156.8 0 75.3067 74.88 64.64 170.667H63.36C44.8 170.667 27.0933 178.773 14.9333 192.64C2.77334 206.72 -2.55999 225.28 8.40308e-06 243.627L22.6133 401.92C31.5733 464.64 85.9733 511.787 149.333 511.787H362.027C425.387 511.787 479.787 464.64 488.747 401.92L511.36 243.627C513.92 225.28 508.587 206.72 496.427 192.64ZM255.36 42.6667C330.453 42.6667 392.533 98.3467 402.987 170.667H107.733C118.187 98.3467 180.267 42.6667 255.36 42.6667Z" fill="#7B046B"/>
</svg>
