<svg width="17" height="17" viewBox="0 0 17 17" fill="none" xmlns="http://www.w3.org/2000/svg">
<path d="M4.89009 14.0275C4.82565 14.1154 4.72158 14.1726 4.60417 14.1726C4.48675 14.1726 4.38268 14.1154 4.31824 14.0275L2.22873 11.9379C2.09042 11.7996 2.09042 11.5754 2.22873 11.4371C2.36704 11.2988 2.59129 11.2988 2.7296 11.4371L4.25 12.9575V3.18751C4.25 2.99191 4.40857 2.83334 4.60417 2.83334C4.79977 2.83334 4.95833 2.99191 4.95833 3.18751V12.9575L6.47873 11.4371C6.61704 11.2988 6.84129 11.2988 6.9796 11.4371C7.11791 11.5754 7.11791 11.7996 6.9796 11.9379L4.89009 14.0275ZM8.85417 4.25001C8.65857 4.25001 8.5 4.09144 8.5 3.89584C8.5 3.70024 8.65857 3.54168 8.85417 3.54168H14.5208C14.7164 3.54168 14.875 3.70024 14.875 3.89584C14.875 4.09144 14.7164 4.25001 14.5208 4.25001H8.85417ZM8.85417 7.08334C8.65857 7.08334 8.5 6.92478 8.5 6.72918C8.5 6.53358 8.65857 6.37501 8.85417 6.37501H13.1042C13.2998 6.37501 13.4583 6.53358 13.4583 6.72918C13.4583 6.92478 13.2998 7.08334 13.1042 7.08334H8.85417ZM8.85417 9.91668C8.65857 9.91668 8.5 9.75811 8.5 9.56251C8.5 9.36691 8.65857 9.20834 8.85417 9.20834H11.6875C11.8831 9.20834 12.0417 9.36691 12.0417 9.56251C12.0417 9.75811 11.8831 9.91668 11.6875 9.91668H8.85417ZM8.85417 12.75C8.65857 12.75 8.5 12.5914 8.5 12.3958C8.5 12.2002 8.65857 12.0417 8.85417 12.0417H10.2708C10.4664 12.0417 10.625 12.2002 10.625 12.3958C10.625 12.5914 10.4664 12.75 10.2708 12.75H8.85417Z" fill="black"/>
</svg>
