<svg width="16" height="16" viewBox="0 0 16 16" fill="none" xmlns="http://www.w3.org/2000/svg">
<path d="M7.80468 1.52867C7.74287 1.46664 7.66941 1.41745 7.58852 1.38392C7.50763 1.3504 7.42091 1.33321 7.33334 1.33333H4.00001C3.91245 1.33321 3.82573 1.3504 3.74483 1.38392C3.66394 1.41745 3.59048 1.46664 3.52868 1.52867L1.52868 3.52867C1.46665 3.59047 1.41746 3.66393 1.38393 3.74482C1.35041 3.82571 1.33322 3.91244 1.33334 4V7.33333C1.33334 7.51067 1.40334 7.68 1.52868 7.80467L8.19534 14.4713C8.25711 14.5335 8.33055 14.5828 8.41144 14.6164C8.49233 14.65 8.57907 14.6674 8.66668 14.6674C8.75428 14.6674 8.84102 14.65 8.92191 14.6164C9.0028 14.5828 9.07624 14.5335 9.13801 14.4713L14.4713 9.138C14.5333 9.07614 14.5825 9.00267 14.616 8.92179C14.6495 8.84092 14.6668 8.75422 14.6668 8.66667C14.6668 8.57911 14.6495 8.49241 14.616 8.41154C14.5825 8.33066 14.5333 8.25719 14.4713 8.19533L7.80468 1.52867ZM5.56868 6.66667C5.42225 6.67032 5.27658 6.64464 5.14023 6.59114C5.00389 6.53764 4.87962 6.4574 4.77475 6.35515C4.66988 6.2529 4.58653 6.1307 4.52961 5.99574C4.47269 5.86079 4.44334 5.71581 4.44329 5.56934C4.44325 5.42287 4.47251 5.27788 4.52935 5.14289C4.58619 5.0079 4.66947 4.88565 4.77427 4.78333C4.87908 4.68101 5.0033 4.6007 5.13961 4.54712C5.27593 4.49354 5.42159 4.46777 5.56801 4.47133C5.85445 4.4783 6.12682 4.59697 6.32697 4.80199C6.52712 5.00701 6.63921 5.28215 6.63929 5.56867C6.63938 5.8552 6.52746 6.1304 6.32743 6.33555C6.12741 6.54069 5.85511 6.65952 5.56868 6.66667Z" fill="#7B046B"/>
</svg>
