<svg width="300" height="300" viewBox="0 0 300 300" fill="none" xmlns="http://www.w3.org/2000/svg">
<rect width="300" height="300" rx="20" fill="url(#paint0_linear_86_3)"/>
<path d="M179.519 112.692C178.927 106.181 176.293 101.121 171.618 97.5107C167.001 93.8411 160.402 92.0064 151.82 92.0064C146.138 92.0064 141.403 92.7462 137.615 94.2258C133.828 95.7055 130.987 97.7474 129.093 100.352C127.199 102.897 126.222 105.826 126.163 109.141C126.045 111.863 126.577 114.26 127.761 116.332C129.004 118.403 130.779 120.238 133.088 121.836C135.455 123.375 138.296 124.736 141.61 125.92C144.925 127.103 148.654 128.139 152.797 129.027L168.422 132.578C177.418 134.531 185.349 137.135 192.214 140.391C199.139 143.646 204.939 147.522 209.615 152.021C214.35 156.519 217.93 161.697 220.357 167.557C222.784 173.416 224.026 179.986 224.086 187.266C224.026 198.748 221.126 208.602 215.385 216.829C209.644 225.056 201.388 231.359 190.616 235.739C179.904 240.118 166.971 242.308 151.82 242.308C136.609 242.308 123.352 240.03 112.047 235.472C100.743 230.915 91.9537 223.99 85.68 214.698C79.4064 205.406 76.1808 193.658 76.0032 179.453H118.084C118.439 185.312 120.008 190.195 122.789 194.102C125.571 198.008 129.389 200.967 134.242 202.979C139.154 204.992 144.836 205.998 151.287 205.998C157.206 205.998 162.237 205.199 166.38 203.601C170.582 202.003 173.807 199.783 176.056 196.942C178.306 194.102 179.46 190.846 179.519 187.177C179.46 183.744 178.394 180.814 176.323 178.388C174.251 175.902 171.055 173.771 166.735 171.996C162.473 170.161 157.028 168.474 150.4 166.935L131.401 162.496C115.658 158.886 103.258 153.056 94.2028 145.007C85.1474 136.899 80.6493 125.949 80.7085 112.159C80.6493 100.914 83.6677 91.0594 89.7638 82.5959C95.86 74.1323 104.294 67.5331 115.066 62.7983C125.837 58.0634 138.118 55.696 151.909 55.696C165.995 55.696 178.217 58.093 188.574 62.8871C198.991 67.6219 207.07 74.2803 212.811 82.8622C218.552 91.4441 221.481 101.387 221.6 112.692H179.519Z" fill="white"/>
<defs>
<linearGradient id="paint0_linear_86_3" x1="150" y1="0" x2="150" y2="300" gradientUnits="userSpaceOnUse">
<stop stop-color="#56016C"/>
<stop offset="1" stop-color="#A801D2"/>
</linearGradient>
</defs>
</svg>
